<?xml version="1.0" encoding="utf-8"?>
<!-- Generator: Adobe Illustrator 21.1.0, SVG Export Plug-In . SVG Version: 6.00 Build 0)  -->
<svg version="1.1" xmlns="http://www.w3.org/2000/svg" xmlns:xlink="http://www.w3.org/1999/xlink" x="0px" y="0px"
	 viewBox="0 0 850.4 850.4" style="enable-background:new 0 0 850.4 850.4;" xml:space="preserve">
<style type="text/css">
	.st0{display:none;}
	.st1{display:inline;fill:url(#SVGID_1_);}
	.st2{display:inline;fill:url(#SVGID_2_);stroke:url(#SVGID_3_);stroke-miterlimit:10;}
	.st3{display:inline;fill:url(#SVGID_4_);}
	.st4{display:inline;fill:url(#SVGID_5_);}
	.st5{display:inline;fill:url(#SVGID_6_);}
	.st6{opacity:0.5;fill:#068E8D;}
</style>
<g id="Слой_1" class="st0">
	<linearGradient id="SVGID_1_" gradientUnits="userSpaceOnUse" x1="85.6432" y1="691.3309" x2="300.598" y2="691.3309">
		<stop  offset="0" style="stop-color:#000000"/>
		<stop  offset="0.1205" style="stop-color:#020204"/>
		<stop  offset="0.2454" style="stop-color:#070A11"/>
		<stop  offset="0.3724" style="stop-color:#101625"/>
		<stop  offset="0.5008" style="stop-color:#1C2743"/>
		<stop  offset="0.6304" style="stop-color:#2B3D68"/>
		<stop  offset="0.761" style="stop-color:#3E5896"/>
		<stop  offset="0.8898" style="stop-color:#5477CB"/>
		<stop  offset="1" style="stop-color:#6A95FF"/>
	</linearGradient>
	<path class="st1" d="M444.1,676.1c-84.7,57.3-169.4,114.6-254,171.9c-1.2,0.8-2.9-0.3-2.4-1.8c30-103.6,60-207.2,90-310.8
		c0.3-1.1,1.7-1.5,2.6-0.8c54.7,46.3,109.4,92.6,164,138.9C445.1,674.3,445,675.5,444.1,676.1z"/>
	<linearGradient id="SVGID_2_" gradientUnits="userSpaceOnUse" x1="159.982" y1="293.7341" x2="298.677" y2="498.9495">
		<stop  offset="0" style="stop-color:#000000"/>
		<stop  offset="0.1387" style="stop-color:#282E3B"/>
		<stop  offset="1" style="stop-color:#6A95FF"/>
	</linearGradient>
	<linearGradient id="SVGID_3_" gradientUnits="userSpaceOnUse" x1="75.9415" y1="433.0995" x2="321.4756" y2="433.0995">
		<stop  offset="0" style="stop-color:#000000"/>
		<stop  offset="1" style="stop-color:#6A95FF"/>
	</linearGradient>
	<path class="st2" d="M320.9,351.5c-15.8,54.7-31.7,109.4-47.5,164.1c-0.3,1.1-1.7,1.5-2.5,0.8C206.2,461.7,141.6,406.9,77,352.2
		c-1.1-0.9-0.4-2.8,1-2.8h241.4C320.5,349.5,321.2,350.5,320.9,351.5z"/>
	<linearGradient id="SVGID_4_" gradientUnits="userSpaceOnUse" x1="741.5764" y1="774.1603" x2="291.9489" y2="321.4591">
		<stop  offset="0" style="stop-color:#000000"/>
		<stop  offset="1" style="stop-color:#6A95FF"/>
	</linearGradient>
	<path class="st3" d="M662.6,842.4c0.3,1-0.9,1.7-1.7,1.1C590.3,783.8,519.8,724,449.2,664.3c-55.7-47.1-111.4-94.3-167-141.4
		c-0.3-0.3-0.4-0.7-0.3-1.1c16.6-57.3,33.2-114.5,49.7-171.8c0.1-0.4,0.5-0.8,1-0.8h196.3c0.5,0,0.9,0.3,1,0.8l52.8,196L662.6,842.4
		z"/>
	<linearGradient id="SVGID_5_" gradientUnits="userSpaceOnUse" x1="322.463" y1="77.4522" x2="508.0364" y2="352.0296">
		<stop  offset="0" style="stop-color:#000000"/>
		<stop  offset="0.1387" style="stop-color:#282E3B"/>
		<stop  offset="1" style="stop-color:#6A95FF"/>
	</linearGradient>
	<path class="st4" d="M524.9,340.4H337.2c-0.8,0-1.5-0.8-1.2-1.6C368.4,226.8,400.8,114.9,433.2,3c0.4-1.2,2.1-1.2,2.4,0l90.5,335.8
		C526.4,339.6,525.7,340.4,524.9,340.4z"/>
	<linearGradient id="SVGID_6_" gradientUnits="userSpaceOnUse" x1="718.5358" y1="294.0877" x2="608.3295" y2="415.8639">
		<stop  offset="0" style="stop-color:#000000"/>
		<stop  offset="0.1097" style="stop-color:#282E3B"/>
		<stop  offset="1" style="stop-color:#6A95FF"/>
	</linearGradient>
	<path class="st5" d="M791.7,353.1L586.7,517.9c-0.8,0.7-2,0.3-2.3-0.8L540,352.4c-0.2-0.9,0.4-1.8,1.4-1.8h249.5
		C792.2,350.6,792.8,352.3,791.7,353.1z"/>
</g>
<g id="Слой_2">
	<polygon class="st6" points="845.1,341.2 588,523.9 529.7,337.8 	"/>
	<polygon class="st6" points="318.9,336.4 256.7,521.1 3.5,333 	"/>
	<polygon class="st6" points="522.6,329.8 327.7,327.8 428.3,28.8 	"/>
	<polygon class="st6" points="580.3,523.9 522,337.9 327.1,335.8 264.9,520.6 421.4,636.8 674.6,825 	"/>
	<polygon class="st6" points="418.5,644.5 161.3,827.2 262,528.3 	"/>
</g>
</svg>
